<?xml version="1.0" standalone="no"?>
<!DOCTYPE svg PUBLIC "-//W3C//DTD SVG 20010904//EN"
 "http://www.w3.org/TR/2001/REC-SVG-20010904/DTD/svg10.dtd">
<svg version="1.0" xmlns="http://www.w3.org/2000/svg"
 width="508.000000pt" height="195.000000pt" viewBox="0 0 508.000000 195.000000"
 preserveAspectRatio="xMidYMid meet">

<g transform="translate(0.000000,195.000000) scale(0.100000,-0.100000)"
fill="#000000" stroke="none">
<path d="M2320 1916 c0 -8 5 -18 11 -22 24 -15 59 -110 59 -162 0 -44 -8 -68
-50 -148 -27 -52 -50 -102 -50 -109 0 -8 -4 -15 -10 -15 -5 0 -10 4 -10 10 0
5 -15 26 -32 46 -37 42 -98 74 -143 74 -41 0 -104 -31 -140 -69 -27 -29 -34
-32 -75 -27 -25 3 -126 8 -225 11 -99 3 -477 17 -840 30 -363 14 -693 25 -733
25 l-72 0 6 -27 c10 -38 30 -67 57 -82 12 -7 28 -25 36 -41 7 -17 25 -37 40
-46 16 -9 36 -33 44 -53 9 -20 30 -44 47 -54 16 -10 30 -24 30 -32 0 -28 61
-84 108 -99 26 -8 205 -65 397 -126 193 -61 460 -147 596 -191 l245 -79 -4
-35 c-9 -79 66 -185 153 -216 28 -11 43 -25 61 -61 l24 -47 41 14 c52 19 51
19 72 -11 19 -25 19 -26 -8 -64 -23 -34 -25 -41 -13 -52 8 -7 28 -26 45 -41
l30 -28 33 27 c30 26 34 27 59 13 27 -16 31 -38 17 -89 -6 -23 -2 -28 47 -52
l53 -26 25 39 c20 34 28 39 49 34 37 -9 44 -21 45 -67 l0 -42 49 -9 c27 -4 54
-6 61 -4 6 3 17 24 24 47 12 39 14 41 48 38 33 -3 38 -7 46 -38 5 -19 12 -38
16 -43 4 -4 32 -4 62 0 l54 8 1 45 c0 37 5 47 25 57 36 19 47 16 64 -16 22
-43 29 -44 85 -20 44 19 51 25 45 43 -19 67 -18 80 13 99 18 10 33 13 37 8 3
-6 18 -19 34 -30 l28 -20 41 42 42 43 -25 34 c-30 41 -30 41 -5 73 20 25 22
25 55 11 48 -20 51 -19 76 26 16 28 33 43 58 51 95 30 159 109 170 209 l6 54
195 62 c107 35 389 124 625 199 237 76 444 146 462 157 18 11 37 34 45 54 7
20 25 42 44 53 19 11 37 34 45 54 7 20 23 40 35 46 13 5 31 23 41 38 9 15 34
44 54 63 36 34 59 84 45 97 -4 4 -347 -5 -764 -20 -416 -16 -822 -30 -902 -33
-80 -2 -167 -7 -193 -10 -46 -5 -50 -3 -89 35 -58 59 -126 75 -196 46 -44 -19
-79 -50 -99 -89 l-16 -30 -18 73 c-26 104 -63 166 -149 252 -62 62 -89 81
-150 106 -96 39 -150 50 -150 29z m-152 -367 c42 -21 83 -69 97 -116 6 -22 4
-23 -54 -23 l-61 0 0 -85 0 -85 40 0 c22 0 40 -3 40 -7 0 -16 -35 -43 -57 -43
-18 0 -23 -5 -23 -26 0 -14 -12 -40 -27 -58 -50 -59 -68 -146 -43 -211 9 -23
8 -25 -10 -15 -10 6 -32 27 -47 47 -24 31 -28 46 -28 103 0 62 3 71 42 130 47
68 58 110 50 172 -7 49 -30 83 -85 123 -22 17 -41 33 -41 37 -1 12 42 50 74
64 43 19 82 17 133 -7z m860 6 c36 -16 82 -52 82 -66 0 -3 -13 -12 -29 -19
-60 -24 -111 -104 -111 -172 0 -33 26 -91 77 -178 32 -53 35 -119 8 -170 l-19
-35 -26 110 c-14 61 -29 122 -33 138 -7 25 -11 27 -60 27 -52 0 -77 12 -77 37
0 8 12 13 30 13 l30 0 0 85 0 85 -50 0 c-55 0 -61 10 -36 58 44 84 133 120
214 87z m-2492 -29 c209 -8 593 -22 854 -31 261 -9 499 -20 528 -26 89 -18
152 -90 152 -174 0 -39 -18 -81 -58 -133 -86 -112 -41 -273 89 -319 43 -15 49
-21 49 -45 0 -27 -2 -28 -47 -28 -87 1 -164 53 -198 133 -12 28 -15 65 -13
140 1 81 -2 109 -16 135 -21 40 -67 70 -121 77 -49 7 -1106 135 -1400 170
-116 14 -227 30 -247 35 -36 10 -68 41 -68 67 0 17 25 17 496 -1z m4485 -8
c-19 -52 -45 -59 -333 -94 -1439 -175 -1418 -172 -1453 -194 -53 -33 -69 -78
-61 -174 9 -107 -9 -167 -64 -221 -22 -21 -41 -37 -43 -34 -2 2 -9 23 -14 45
-9 36 -7 46 13 79 48 80 41 152 -26 251 -52 78 -60 132 -28 194 25 49 71 85
127 99 20 5 259 17 531 26 272 9 639 23 815 30 176 7 370 13 432 14 112 1 112
1 104 -21z m-4801 -98 c36 -5 127 -16 203 -25 302 -34 1350 -165 1353 -168 7
-7 -38 -112 -55 -130 -17 -17 -29 -16 -337 42 -175 33 -512 96 -749 140 -237
45 -444 88 -462 96 -17 8 -37 23 -43 35 -13 24 -8 24 90 10z m4718 -2 c-7 -20
-53 -49 -94 -58 -37 -8 -530 -102 -1193 -226 -259 -49 -296 -54 -308 -41 -15
15 -65 128 -59 134 3 4 31 7 781 99 297 36 603 74 680 84 175 22 198 23 193 8z
m-4263 -168 c237 -45 560 -105 719 -135 159 -30 291 -56 292 -58 5 -5 -29 -91
-46 -117 l-16 -23 -179 46 c-99 26 -402 103 -674 172 -272 69 -504 131 -515
137 -23 11 -55 48 -56 62 0 4 10 6 23 3 12 -3 215 -42 452 -87z m4185 81 c0
-6 -10 -22 -23 -36 -20 -24 -89 -44 -710 -202 l-689 -175 -16 23 c-9 13 -24
45 -33 71 l-15 46 210 41 c116 22 360 68 541 102 182 34 416 79 520 99 220 44
215 43 215 31z m-2562 -116 c11 -24 11 -25 -29 -25 -29 0 -38 3 -33 13 26 44
46 48 62 12z m518 8 c21 -28 17 -32 -28 -35 l-43 -3 -22 -94 c-12 -51 -24 -96
-27 -98 -3 -3 -13 10 -22 29 -16 34 -15 35 15 80 18 26 41 67 52 92 22 50 51
61 75 29z m-2078 -102 c235 -60 529 -135 653 -166 l226 -58 -7 -37 c-4 -21 -5
-52 -2 -69 3 -20 0 -31 -8 -31 -6 0 -185 56 -398 124 -213 68 -481 154 -597
190 -116 37 -226 74 -246 82 -34 15 -82 74 -60 74 6 0 203 -49 439 -109z
m4032 98 c0 -36 -63 -64 -350 -156 -162 -52 -446 -143 -630 -202 l-336 -107 0
72 0 72 141 37 c536 139 1143 293 1158 294 9 1 17 -4 17 -10z m-1479 -69 c8
-20 14 -69 14 -115 0 -71 -4 -89 -33 -147 -34 -70 -87 -124 -149 -153 -39 -19
-38 -19 -46 15 -5 20 0 29 24 45 71 48 104 134 95 250 -7 89 0 121 35 154 21
19 23 20 34 3 6 -9 18 -33 26 -52z m-1441 28 c17 -28 20 -49 18 -138 -2 -119
10 -161 65 -219 44 -46 101 -71 165 -71 50 0 53 -2 50 -22 -3 -21 -8 -23 -73
-22 -160 1 -285 111 -316 278 -11 61 -3 124 25 191 19 44 41 44 66 3z m525
-161 c-15 -26 -29 -47 -31 -47 -2 0 -4 35 -4 77 l0 78 30 -31 31 -30 -26 -47z
m-225 -42 c0 -106 -2 -125 -16 -125 -46 0 -58 158 -15 218 12 18 24 32 27 32
2 0 4 -56 4 -125z m-381 -92 c36 -76 96 -137 170 -172 45 -21 71 -26 133 -26
67 0 78 -2 78 -17 0 -24 -36 -31 -138 -26 -96 5 -165 31 -235 88 -89 74 -119
190 -76 290 l24 55 8 -65 c4 -36 21 -93 36 -127z m756 -173 l95 0 2 181 3 180
33 -57 33 -57 -61 -256 c-34 -141 -64 -264 -66 -273 -5 -16 4 -18 89 -18 l95
0 17 75 17 76 76 -3 77 -3 15 -70 c12 -54 20 -71 35 -74 19 -3 44 -28 45 -43
0 -5 -227 -8 -505 -8 -278 0 -505 2 -505 4 0 2 28 53 63 112 l62 108 3 -87 3
-87 94 0 95 0 0 257 0 256 43 73 42 73 3 -180 2 -179 95 0z m835 318 c24 -52
26 -141 5 -192 -32 -77 -124 -153 -219 -181 -44 -13 -44 -13 -51 12 -3 14 -5
26 -3 28 2 1 27 15 56 30 102 55 170 162 180 281 2 35 7 64 9 64 2 0 13 -19
23 -42z m-1653 -251 c70 -101 198 -161 340 -160 45 0 80 -3 78 -8 -13 -19
-114 -44 -180 -42 -171 2 -315 120 -315 256 0 25 5 58 11 74 11 28 12 27 24
-25 7 -30 26 -73 42 -95z m1723 92 c19 -70 -2 -132 -69 -200 -57 -58 -119 -89
-203 -102 -34 -5 -39 -3 -44 18 -7 29 1 45 24 45 32 0 121 49 167 91 51 47 95
123 95 164 0 39 18 30 30 -16z m-561 -46 c26 -98 26 -93 -8 -93 -20 0 -31 5
-31 14 0 18 22 116 26 116 2 0 8 -17 13 -37z m-1096 -237 c101 -50 190 -56
316 -20 46 13 5 -33 -56 -63 -50 -24 -70 -28 -138 -27 -93 1 -152 23 -202 75
-36 38 -63 96 -63 135 0 25 2 24 44 -23 24 -27 69 -61 99 -77z m1630 6 c-37
-60 -102 -100 -186 -115 -37 -6 -69 -9 -72 -6 -2 3 -8 19 -11 36 -6 31 -5 31
47 42 30 6 77 22 104 35 48 22 133 97 137 120 1 6 3 -6 5 -28 3 -29 -2 -49
-24 -84z m-1348 -121 c-3 -6 -11 -8 -17 -5 -6 4 -5 9 3 15 16 10 23 4 14 -10z
m-25 -44 c0 -6 -9 -2 -20 8 -11 10 -17 22 -13 28 6 10 33 -19 33 -36z m-39 -5
c15 -23 19 -36 12 -43 -8 -8 -18 -2 -33 19 l-23 31 -40 -16 c-39 -16 -41 -16
-59 6 -10 13 -18 26 -18 30 0 3 31 6 69 6 67 0 70 -1 92 -33z m1219 20 c0 -5
-6 -17 -14 -27 -12 -16 -16 -17 -30 -6 -26 22 -19 41 14 41 17 0 30 -4 30 -8z
m-130 -41 c0 -13 -26 -32 -33 -24 -14 13 -6 33 13 33 11 0 20 -4 20 -9z m-974
-100 c24 -21 75 -55 113 -75 232 -122 515 -94 715 69 69 56 104 59 137 14 l22
-31 -31 -31 -31 -31 -23 20 c-39 35 -46 36 -88 8 -22 -15 -40 -28 -40 -29 0
-1 7 -21 15 -44 l14 -41 -39 -20 -40 -20 -24 39 -25 39 -45 -16 c-45 -16 -46
-18 -46 -59 0 -47 -1 -48 -52 -57 l-38 -7 -11 46 -11 45 -53 0 -53 0 -11 -46
c-11 -45 -13 -46 -43 -40 -17 3 -37 6 -45 6 -11 0 -14 11 -12 47 l3 47 -48 15
c-43 14 -49 13 -57 0 -4 -9 -17 -26 -27 -39 -18 -22 -19 -22 -53 -5 -19 10
-35 19 -37 20 -1 1 5 21 13 45 8 24 14 44 13 44 -2 1 -20 14 -41 30 l-38 28
-34 -26 c-41 -31 -43 -32 -72 -4 -28 26 -28 32 -2 69 30 42 69 39 125 -10z
m64 0 c117 -82 245 -117 393 -108 125 8 242 50 329 119 21 16 43 28 50 26 14
-5 -71 -68 -140 -102 -76 -38 -193 -66 -277 -66 -131 0 -301 59 -391 136 -53
45 -32 43 36 -5z m115 13 c159 -73 331 -72 477 1 30 15 66 25 91 25 40 -1 41
-1 22 -16 -74 -57 -207 -104 -315 -111 -133 -8 -291 36 -380 107 l-25 20 36 0
c20 0 62 -12 94 -26z m459 17 c-20 -19 -113 -43 -185 -48 -80 -6 -200 14 -249
42 -22 13 2 14 209 15 133 0 231 -4 225 -9z"/>
</g>
</svg>
